<svg width="41" height="41" viewBox="0 0 41 41" fill="none" xmlns="http://www.w3.org/2000/svg">
<g transform="translate(7, 0)">
<path fill-rule="evenodd" clip-rule="evenodd" d="M10.2529 15.2125C9.68683 14.97 9.03815 15.2917 8.8888 15.8892L8.17358 18.75L5.15516 17.63C4.60473 17.4258 3.99762 17.7374 3.84272 18.3037L3.17358 20.75L0.5 20.25L0.5 5.75L4.13095 3.65367L13.6738 13.25L12.6736 16.25L10.2529 15.2125Z" fill="#F5C518"/>
<path fill-rule="evenodd" clip-rule="evenodd" d="M10.2529 15.2125C9.68683 14.97 9.03815 15.2917 8.8888 15.8892L8.17358 18.75L5.15516 17.63C4.60473 17.4258 3.99762 17.7374 3.84272 18.3037L3.17358 20.75L0.5 20.25L0.5 5.75L4.13095 3.65367L13.6738 13.25L12.6736 16.25L10.2529 15.2125Z" fill="#FFE99A"/>
<path d="M1.35465 0.860003C1.04013 0.543506 0.5 0.766247 0.5 1.21245V5.75L4.13095 3.65367L1.35465 0.860003Z" fill="black"/>
<path d="M0.5 20.25V38.3733C0.5 39.1736 1.39342 39.6497 2.05772 39.2033L5.33679 37L10.6736 33.75L12.7659 39.1901C12.9822 39.7525 13.6429 39.9973 14.1734 39.7116L18.8194 37.21C19.2953 36.9537 19.4814 36.3657 19.2397 35.8823L16.6736 30.75L25.452 28.2005C26.1646 27.9935 26.4115 27.1098 25.9094 26.5635L13.6738 13.25L12.6736 16.25L10.2529 15.2125C9.68683 14.97 9.03815 15.2917 8.8888 15.8892L8.17358 18.75L5.15516 17.63C4.60473 17.4258 3.99762 17.7374 3.84272 18.3037L3.17358 20.75L0.5 20.25Z" fill="#F5C518"/>
<path d="M0.5 20.25V38.3733C0.5 39.1736 1.39342 39.6497 2.05772 39.2033L5.33679 37L10.6736 33.75L12.7659 39.1901C12.9822 39.7525 13.6429 39.9973 14.1734 39.7116L18.8194 37.21C19.2953 36.9537 19.4814 36.3657 19.2397 35.8823L16.6736 30.75L25.452 28.2005C26.1646 27.9935 26.4115 27.1098 25.9094 26.5635L13.6738 13.25L12.6736 16.25L10.2529 15.2125C9.68683 14.97 9.03815 15.2917 8.8888 15.8892L8.17358 18.75L5.15516 17.63C4.60473 17.4258 3.99762 17.7374 3.84272 18.3037L3.17358 20.75L0.5 20.25Z" fill="#D45555" fill-opacity="0.2"/>
<path d="M0.5 5.75L0.5 20.25V38.3733C0.5 39.1736 1.39342 39.6497 2.05772 39.2033L5.33679 37L10.6736 33.75L12.7659 39.1901C12.9822 39.7525 13.6429 39.9973 14.1734 39.7116L18.8194 37.21C19.2953 36.9537 19.4814 36.3657 19.2397 35.8823L16.6736 30.75L25.452 28.2005C26.1646 27.9935 26.4115 27.1098 25.9094 26.5635L13.6738 13.25L4.13095 3.65367M0.5 20.25L3.17358 20.75L3.84272 18.3037C3.99762 17.7374 4.60473 17.4258 5.15516 17.63L8.17358 18.75L8.8888 15.8892C9.03815 15.2917 9.68683 14.97 10.2529 15.2125L12.6736 16.25L13.6738 13.25M0.5 5.75V1.21245C0.5 0.766247 1.04013 0.543506 1.35465 0.860003L4.13095 3.65367M0.5 5.75L4.13095 3.65367" stroke="black"/>
<path d="M8.17358 18.75L16.6736 38.75M12.6736 16.25L22.6736 29.25M3.17358 20.75L5.67358 36.75" stroke="black" stroke-width="0.5"/>
</g>
</svg>
